<svg xmlns="http://www.w3.org/2000/svg" id="Ebene_1" viewBox="70.82 35.27 358.18 133.51"><defs><style>.cls-1{fill:#132d44;}</style></defs><path d="M261.2,69.39v50.94h-3.71v-24.41h-31.9v24.41h-3.71v-50.94h3.71v23.76h31.9v-23.76h3.71Z"/><path d="M303.61,84.51v35.82h-1.91c-.6,0-.95-.31-1.04-.94l-.32-5.33c-1.66,2.06-3.57,3.72-5.74,4.97-2.17,1.25-4.59,1.87-7.25,1.87-1.99,0-3.73-.31-5.22-.94-1.49-.62-2.72-1.52-3.71-2.7-.98-1.18-1.73-2.59-2.23-4.25-.5-1.66-.76-3.53-.76-5.62v-22.9h3.46v22.9c0,3.36.77,5.99,2.3,7.9,1.54,1.91,3.88,2.86,7.02,2.86,2.33,0,4.51-.59,6.53-1.78,2.03-1.19,3.83-2.84,5.42-4.95v-26.93h3.46Z"/><path d="M320.64,90.74c1.56-2.11,3.38-3.77,5.47-4.99,2.09-1.21,4.51-1.82,7.27-1.82,2.16,0,4.09.4,5.8,1.19s3.15,1.93,4.34,3.42c1.19,1.49,2.09,3.32,2.72,5.49.62,2.17.94,4.64.94,7.4,0,2.9-.35,5.55-1.04,7.94-.7,2.39-1.71,4.43-3.04,6.12-1.33,1.69-2.96,3-4.88,3.92-1.92.92-4.12,1.39-6.59,1.39s-4.71-.49-6.5-1.46c-1.79-.97-3.33-2.42-4.63-4.34l-.25,4.43c-.07.6-.4.9-.97.9h-2.09v-52.38h3.46v22.79ZM320.64,112.52c1.39,2.06,2.92,3.51,4.59,4.34,1.67.83,3.55,1.24,5.63,1.24s4-.38,5.6-1.15c1.6-.77,2.93-1.87,4-3.29,1.07-1.43,1.87-3.16,2.39-5.2.53-2.04.79-4.33.79-6.88,0-4.94-.98-8.66-2.95-11.16-1.97-2.5-4.73-3.74-8.28-3.74-2.54,0-4.76.61-6.66,1.84-1.9,1.22-3.6,2.93-5.11,5.11v18.9Z"/><path d="M359.88,101v.68c0,2.69.31,5.05.94,7.09.62,2.04,1.51,3.75,2.66,5.13,1.15,1.38,2.54,2.42,4.18,3.11,1.63.7,3.46,1.04,5.47,1.04,1.8,0,3.36-.2,4.68-.59,1.32-.4,2.43-.84,3.33-1.33.9-.49,1.61-.94,2.14-1.33s.91-.59,1.15-.59c.31,0,.55.12.72.36l.94,1.15c-.58.72-1.34,1.39-2.29,2.02s-2,1.16-3.17,1.6c-1.16.44-2.41.8-3.74,1.06-1.33.26-2.67.4-4.01.4-2.45,0-4.68-.43-6.7-1.28-2.02-.85-3.74-2.09-5.18-3.73-1.44-1.63-2.55-3.63-3.33-5.99-.78-2.36-1.17-5.07-1.17-8.12,0-2.57.37-4.94,1.1-7.11.73-2.17,1.79-4.04,3.17-5.62,1.38-1.57,3.07-2.8,5.08-3.69,2-.89,4.28-1.33,6.82-1.33,2.02,0,3.89.35,5.62,1.04,1.73.7,3.23,1.71,4.5,3.04,1.27,1.33,2.27,2.97,3.01,4.91s1.1,4.18,1.1,6.7c0,.53-.07.89-.22,1.08-.14.19-.38.29-.72.29h-26.06ZM383.78,98.8c0-1.92-.27-3.64-.81-5.17-.54-1.52-1.3-2.81-2.29-3.87-.98-1.06-2.15-1.87-3.51-2.43-1.36-.56-2.85-.85-4.48-.85-1.85,0-3.5.29-4.97.86-1.46.58-2.73,1.4-3.8,2.48-1.07,1.08-1.93,2.38-2.57,3.89s-1.08,3.2-1.3,5.08h23.72Z"/><path d="M401.28,93.15c.55-1.46,1.18-2.77,1.89-3.91.71-1.14,1.52-2.11,2.45-2.9.92-.79,1.96-1.4,3.1-1.82,1.14-.42,2.41-.63,3.8-.63.74,0,1.48.07,2.2.2.72.13,1.36.37,1.91.7l-.29,2.38c-.12.38-.35.58-.68.58-.29,0-.73-.08-1.31-.25-.59-.17-1.36-.25-2.32-.25-1.39,0-2.62.21-3.69.63-1.07.42-2.03,1.05-2.88,1.89-.85.84-1.6,1.88-2.23,3.11-.64,1.24-1.22,2.66-1.75,4.27v23.18h-3.46v-35.82h1.84c.41,0,.7.08.86.25.17.17.28.46.32.86l.25,7.52Z"/><path d="M222.39,148.81h1.08c.15,0,.28,0,.39-.01s.21-.03.3-.06c.09-.03.18-.08.25-.13.08-.06.16-.13.25-.22l7.44-7.33c.1-.1.19-.16.27-.2.08-.04.18-.05.29-.05h.48l-7.86,7.74c-.14.14-.27.24-.37.31-.1.07-.22.13-.37.17.15.04.28.1.4.17.11.07.23.18.35.31l8.33,8.17h-.48c-.15,0-.26-.02-.34-.05-.07-.04-.14-.09-.2-.17l-7.82-7.62c-.09-.09-.17-.16-.24-.22-.07-.06-.15-.11-.24-.15-.09-.04-.19-.07-.32-.09s-.28-.03-.47-.03h-1.12v8.34h-.66v-16.87h.66v8Z"/><path d="M253.31,157.67h-.52c-.12,0-.21-.07-.26-.2l-2.2-5.34h-8.66l-2.2,5.34c-.04.14-.13.2-.28.2h-.49l6.98-16.87h.64l6.98,16.87ZM250.11,151.63l-3.86-9.4c-.09-.22-.17-.46-.25-.72-.07.26-.16.5-.25.72l-3.86,9.4h8.23Z"/><path d="M271.93,157.67h-.54c-.09,0-.17-.01-.23-.04-.07-.02-.13-.08-.2-.17l-5.95-7.28c-.06-.09-.13-.16-.2-.22-.07-.06-.14-.1-.23-.14-.08-.04-.18-.06-.3-.08-.12-.02-.26-.02-.43-.02h-2.46v7.94h-.66v-16.87h4.07c1.83,0,3.22.36,4.18,1.07.95.71,1.43,1.79,1.43,3.24,0,.66-.12,1.27-.37,1.81-.25.54-.6,1.01-1.04,1.4-.45.4-.99.71-1.63.95-.64.24-1.35.38-2.12.43.14.08.28.2.42.36l6.28,7.62ZM261.39,149.23h3.22c.79,0,1.51-.09,2.14-.28.64-.19,1.18-.46,1.62-.82s.78-.79,1.02-1.29.35-1.07.35-1.7c0-1.3-.42-2.26-1.27-2.88-.85-.62-2.07-.92-3.67-.92h-3.41v7.9Z"/><path d="M293.36,149.24c0,1.32-.19,2.5-.58,3.55-.38,1.04-.92,1.93-1.62,2.65s-1.53,1.28-2.5,1.66c-.97.38-2.04.58-3.2.58h-6.08v-16.87h6.08c1.17,0,2.24.19,3.2.58.97.38,1.8.94,2.5,1.66s1.24,1.61,1.62,2.65c.38,1.04.58,2.23.58,3.55ZM292.66,149.24c0-1.26-.17-2.37-.52-3.35s-.84-1.81-1.48-2.48c-.64-.67-1.4-1.18-2.28-1.54-.88-.35-1.86-.53-2.92-.53h-5.42v15.79h5.42c1.06,0,2.04-.18,2.92-.53.88-.35,1.64-.86,2.28-1.54.64-.67,1.13-1.5,1.48-2.48s.52-2.1.52-3.35Z"/><path d="M302.59,157.67h-.66v-16.87h.66v16.87Z"/><path d="M326.92,149.24c0,1.32-.19,2.51-.58,3.57-.38,1.06-.92,1.96-1.62,2.71s-1.53,1.32-2.5,1.72c-.97.4-2.04.6-3.22.6s-2.22-.2-3.19-.6c-.97-.4-1.8-.97-2.5-1.72-.7-.75-1.24-1.65-1.62-2.71-.38-1.06-.58-2.25-.58-3.57s.19-2.5.58-3.56.92-1.97,1.62-2.72c.7-.75,1.53-1.33,2.5-1.73.97-.41,2.03-.61,3.19-.61s2.25.2,3.22.61c.97.4,1.8.98,2.5,1.73s1.24,1.65,1.62,2.72c.38,1.06.58,2.26.58,3.58ZM326.23,149.24c0-1.26-.17-2.38-.52-3.38s-.84-1.84-1.48-2.54c-.64-.7-1.4-1.23-2.28-1.6-.88-.37-1.86-.55-2.93-.55s-2.03.18-2.91.55c-.88.37-1.64.9-2.28,1.6-.64.7-1.13,1.54-1.49,2.54s-.53,2.12-.53,3.38.18,2.38.53,3.38.85,1.84,1.49,2.53c.64.69,1.4,1.22,2.28,1.58.88.37,1.85.55,2.91.55s2.05-.18,2.93-.55c.88-.37,1.64-.9,2.28-1.58.64-.69,1.13-1.53,1.48-2.53s.52-2.12.52-3.38Z"/><path d="M344.49,157.1v.58h-9.02v-16.87h.66v16.3h8.36Z"/><path d="M365.36,149.24c0,1.32-.19,2.51-.58,3.57-.38,1.06-.92,1.96-1.62,2.71s-1.53,1.32-2.5,1.72c-.97.4-2.04.6-3.22.6s-2.22-.2-3.19-.6c-.97-.4-1.8-.97-2.5-1.72-.7-.75-1.24-1.65-1.62-2.71-.38-1.06-.58-2.25-.58-3.57s.19-2.5.58-3.56.92-1.97,1.62-2.72c.7-.75,1.53-1.33,2.5-1.73.97-.41,2.03-.61,3.19-.61s2.25.2,3.22.61c.97.4,1.8.98,2.5,1.73s1.24,1.65,1.62,2.72c.38,1.06.58,2.26.58,3.58ZM364.66,149.24c0-1.26-.17-2.38-.52-3.38s-.84-1.84-1.48-2.54c-.64-.7-1.4-1.23-2.28-1.6-.88-.37-1.86-.55-2.93-.55s-2.03.18-2.91.55c-.88.37-1.64.9-2.28,1.6-.64.7-1.13,1.54-1.49,2.54s-.53,2.12-.53,3.38.18,2.38.53,3.38.85,1.84,1.49,2.53c.64.69,1.4,1.22,2.28,1.58.88.37,1.85.55,2.91.55s2.05-.18,2.93-.55c.88-.37,1.64-.9,2.28-1.58.64-.69,1.13-1.53,1.48-2.53s.52-2.12.52-3.38Z"/><path d="M387.26,150.26v5.76c-.83.57-1.73,1.02-2.69,1.35-.96.33-2.04.5-3.25.5-1.32,0-2.51-.2-3.56-.61-1.06-.4-1.95-.98-2.69-1.73-.74-.75-1.31-1.65-1.7-2.72-.39-1.06-.59-2.26-.59-3.58s.19-2.51.58-3.57.95-1.97,1.67-2.72c.73-.75,1.61-1.33,2.64-1.73,1.03-.4,2.19-.61,3.48-.61.63,0,1.21.04,1.75.12s1.03.2,1.48.37c.46.16.89.37,1.29.62s.79.54,1.17.86l-.17.25c-.06.1-.16.13-.28.1-.08-.02-.23-.13-.44-.31s-.52-.38-.93-.59c-.41-.21-.93-.41-1.57-.58-.64-.18-1.41-.26-2.32-.26-1.18,0-2.24.18-3.19.55-.95.37-1.76.9-2.42,1.6-.67.7-1.18,1.54-1.54,2.54-.36,1-.54,2.12-.54,3.38s.18,2.37.54,3.37c.36,1,.88,1.85,1.55,2.55.68.7,1.5,1.24,2.47,1.61.97.37,2.07.56,3.29.56.55,0,1.07-.04,1.54-.11.48-.07.93-.18,1.35-.31.42-.14.84-.3,1.24-.5.4-.2.8-.42,1.21-.67v-4.96h-3.56c-.06,0-.1-.02-.14-.06-.04-.04-.06-.08-.06-.13v-.34h4.38Z"/><path d="M396.6,157.67h-.66v-16.87h.66v16.87Z"/><path d="M416.25,157.11l-.02.56h-9.96v-16.87h9.96v.56h-9.3v7.48h7.84v.55h-7.84v7.72h9.32Z"/><path class="cls-1" d="M141.55,74.35l.27-2.62c-.8,8.51-1.71,17.42-2.61,26.18,1.16-9.41,2.41-19.79,3.42-29.72.5-4.96.94-9.81,1.26-14.35.16-2.27.3-4.46.4-6.55.04-1.04.08-2.06.13-3.05.01-.49.03-.98.04-1.46v-.36s.01-.18.01-.18v-.08s.05-.66.05-.66c.11-.17.27-.6.47-1.19.2-.57.46-1.39.78-2.02.04-.08.08-.13.11-.18.01-.01.02-.02.03-.04h0s-.1-.06-.14-.09c-.11-.07-.22-.15-.32-.23-.22-.21-.35-.29-.46-.44-.12-.2-.15-.18-.17-.31,0-.03.02.1-.34.45-.18.19-.31.21-.62.45l-.23.15h0s.06.19.06.19c.05.19.11.4.16.64.21.97.35,2.16.47,3.31.26,2.46.54,4.9.76,6.73.23,1.84.4,3.07.45,3.16.6,3.86,1.21,7.75,1.83,11.69-.41-2.71-.82-5.41-1.22-8.09.41,2.68.81,5.38,1.22,8.09,3.76,24.85,7.1,51.91,10.61,80.41.5,3.94,1.2,9.56,2.02,16.04.1.81.21,1.63.31,2.47l.08.63.04.32c.01.1.02.2.06.39.14.65.29,1.27.47,1.79.35,1.07.78,1.72,1.22,2.16.22.22.44.41.71.55.13.07.28.14.47.2.18.06.51.06.71.02.39-.09.63-.22.87-.39.24-.17.47-.37.7-.65.46-.56.94-1.4,1.31-2.8l.28-1.01.23-1.19.45-2.39c.18-.9.24-1.34.34-1.92l.27-1.69c1.14-7.27,1.98-14.39,2.58-20.83l.05-.55.05-.18c.08-.25.18-.51.3-.74.24-.48.54-.88.88-1.19.66-.64,1.51-.9,2.47-.97.83-.04,2.36.14,3.52.19,1.22.07,2.35.1,3.42.09.4,0,.81-.02,1.23-.05l.66-.06.37-.05.23-.04h0c.92-.05,1.89-.22,2.85-.57.95-.35,1.97-.9,2.8-1.81-.83.9-1.84,1.44-2.79,1.79-.96.35-1.93.52-2.85.56h0s-.36.06-.36.06l-.47.05c-.3.03-.59.04-.86.06-.55.02-1.1.03-1.62.02.55,0,1.11-.03,1.67-.07.28-.02.56-.05.86-.08.15-.02.3-.04.45-.07l.25-.05c.06-.01.08-.02.08-.02h.01c1.25-.1,2.51-.41,3.74-1.06.61-.33,1.21-.79,1.72-1.35.51-.57.91-1.25,1.16-1.96.59-1.7,1.36-3.43,2.11-5.13,1.52-3.39,3.06-6.68,4.6-9.88l.05-.1v-.03c.05-.11.25-.49.28-.53-.08.06-.3.42-.36.5l-.06.13c-.43.71-.87,1.43-2.07,3.68l1.92-3.76.05-.12v-.03c.06-.15.16-.37.23-.51.07-.13.11-.22.19-.32.14-.2.4-.38.7-.32.3.07.5.25.85.7.38.5.8,1.27,1.21,1.97,1.65,2.84,3.32,5.71,4.39,7.55-.57-.73,1.05,2.21,2.48,4.79l-.49-1.06c.34.61.69,1.23,1.03,1.86l.52.94.17.31.22.37c.19.2.41.39.62.56,1.34,1.04,2.96,1.75,4.74,1.91l.66.03h.56s1.12,0,1.12,0h2.24c1.49,0,2.98-.01,4.47-.02,5.93-.01,11.71-.02,16.74-.03,1.4,0,2.45.05,3.09.1l9.64-.11c-.74.19,8,.16,3.4.28,7.22-.22,14.54-.08,21.42-.31,24.6-.03,50.76-.17,76.19-.48l-.62-.07c8.9-.12,16.75-.49,27.57-.37,7.73-.25,18.72-.38,21.79-.76,8.92-.05,12.47-.25,21.22-.35-2.25-.19,8.49-.23,4.19-.38-5.8-.27-6.12-.04-11.04-.26l.15.06c-22.97-.29-45.98-.45-69.26-.54-15.54.16-32.39.03-48.55.08-17.39.07-36.21.19-51.13.35-3.56.05-6.13-.11-9.16-.19-6.86.02-14.66.04-22.67.06h-1.46c-.38,0-.76-.07-1.14-.16-.75-.19-1.5-.55-2.16-1.02-.2-.15-.22-.17-.29-.23-.02-.03-.04-.07-.06-.09l-.16-.28-.75-1.32-1.49-2.64c-2-3.51-3.98-7-5.9-10.37.14.26.28.5.37.67-.2-.35-.4-.7-.59-1.04-.2-.35-.36-.67-.64-1.06l-.37-.56c-.17-.21-.36-.43-.55-.64-.17-.21-.41-.4-.66-.58-.24-.18-.48-.38-.76-.47-.27-.13-.54-.24-.83-.27-.28-.08-.57-.07-.86-.05-.57.08-1.12.29-1.58.63-.47.33-.87.79-1.21,1.25-.35.51-.48.77-.71,1.28l.05-.12c-2,3.93-3.91,7.64-5.93,12.15.06-.02-.44,1.14-.66,1.74-.05.08-.15.29-.31.67-.07.19-.16.41-.26.66-.06.13-.12.29-.22.43-.19.29-.49.61-1.03.88-.54.27-1.27.49-2.13.54l-.32.05c-1.45.25-3.3.23-5.28.16-.5-.02-1-.05-1.51-.07-.26-.02-.52-.03-.78-.05-.31,0-.62,0-.93-.01-1.25.02-2.63.27-3.87.96-1.24.68-2.27,1.75-2.91,2.96-.33.6-.59,1.23-.77,1.91-.04.14-.11.41-.12.63l-.03.47-.06.84c-.17,2.26-.36,4.5-.57,6.65-.42,4.31-.88,8.26-1.29,11.26-.1.74-.2,1.42-.28,2.03-.08.53-.15,1-.21,1.4-.05.31-.09.57-.13.77-.03.15-.05.26-.07.32-.06.42-.12.86-.2,1.31-.11.51-.23,1-.41,1.46-.1.21-.18.5-.44.55-.27-.07-.33-.42-.42-.66-.15-.53-.24-1.06-.31-1.57l-.28-2.44c-.49-4.24-.97-8.47-1.45-12.62-.95-8.28-1.87-16.2-2.82-23.24-.51-2.94-1.05-6.3-1.51-8.77-.23-2.61-.48-2.9-.85-5.95-.55-8.11-1.32-12.4-.97-8.31-.89-6.27-1.68-12.64-2.43-18.24-.38-2.58-.76-5.15-1.14-7.76-.33-2.21-.42-3.5-.46-4.67-.82-5.68-.48-4.05-1.21-10.04-.02-1.49-2.23-14.89-2.42-16.67l.17,1c-.11-.88-.23-1.75-.38-2.6-.16-.86-.28-1.65-.65-2.6-.1-.24-.2-.5-.47-.85-.08-.09-.16-.19-.25-.27-.11-.1-.31-.24-.49-.32-.14-.09-.47-.16-.74-.15-.3,0-.47.07-.7.16-.71.38-.85.73-1.02.96-.17.26-.26.47-.36.69-.36.84-.57,1.58-.77,2.33-.2.75-.36,1.48-.51,2.25-.09.76-.19,1.52-.29,2.31-.17,1.49-.34,3.05-.51,4.75-1.89,18.82-3.69,39.45-5.38,56.89.16.31.32-3.88.57-3.92-1.05,10.13-2.1,20.36-3.16,30.59-.03.08-.08.17-.17.2-.1.03-.21-.05-.27-.13-.13-.16-.18-.3-.19-.37-.01-.02-.03-.05-.04-.07-.07-.09-.13-.18-.18-.25-.16-.21-.29-.38-.39-.52-.25-.32-.42-.51-.58-.68-.17-.17-.3-.32-.61-.6-.15-.13-.37-.33-.69-.54-.31-.21-.76-.42-1.23-.56l-.41-.28c-1.08-.19-1.72-.28-2.41-.44-.7-.15-1.18-.3-1.65-.5-.45-.19-.83-.42-1.02-.61-.1-.1-.14-.15-.19-.24-.08-.15-.16-.31-.25-.47-.14-.25-.26-.44-.4-.64-.18-.16-.87-1.21-1.66-2.28-.01-.17-.49-.74-.87-1.38-.38-.67-.94-1.59-.81-1.52l-.03-.03c-.42-.69-.75-1.14-1.26-1.93-.11-.14-.34-.43-.66-.83-.29-.35-.78-1.01-1.47-1.64-.69-.63-1.59-1.3-2.76-1.72-.58-.22-1.23-.35-1.92-.39-.35-.02-.71,0-1.08.05-.39.06-.83.18-1.2.34-.39.16-.75.39-1.05.68-.15.11-.33.32-.41.4l-.25.29c-.34.39-.66.81-.95,1.25-.6.89-.97,1.86-1.21,2.51-.25.68-.45,1.15-.65,1.59-.2.42-.34.73-.41.88l-.33.52c-.91,1.54-1.33,2.25-.67,1.38-.42.62-.9,1.25-1.38,1.91l.15-.23c-.52.72-.85,1.16-1.31,1.59-.27.21-.6.39-.27,0-.71.72-1.79,1.21-2.79,1.25,1.39-.05,2.91-.77,3.98-2.18.67-.87,1.34-1.69,1.91-2.49.58-.8,1.09-1.63,1.56-2.46-.33.72-.85,1.66-1.46,2.56-.61.89-1.34,1.82-1.85,2.55-.42.49-1.03,1.15-1.88,1.59-.41.23-.88.42-1.38.52-.48.11-1.07.15-1.45.11-.03,0-.1,0-.14-.01h-.14c-.93-.03-1.84-.06-2.7-.08-.74.01-1.24.21-2.92.12-.82-.14-1.89,0-3.28-.09,1.6-.07,3.16-.04,4.78-.03-.28-.16-3.94-.11-5.22-.16-.6.05-3.72,0-5.69.04.86-.16-1.58-.1-2.75-.18-1.32-.02-2.17.04-1.63.1-.43.17,5.27.1,3.42.28-.49-.08-3.08-.05-4.47-.05-.02.09.95.07.05.16-1.55-.02-3.2.09-4.09,0,.29-.03.93,0,1.39,0-2.02,0,10.95-.6,8.34-.55.68.08-11.51.55-10.16.55,1.23.05-.88.17.39.2l1.42-.11c1.74.03,2.46.2,1.84.26-2.92-.01,8.29-.63,5.8-.54l1.01.04c-1.06.06-3.89.11-4.98.02,0,.09-1.43.12-2.62.16l-.42-.02c-1.22.05-2.93.02-2.14.15,7.17-.01-4.71.93,2.23.98-2.91-.2.98-.21,4.03-.23.3.07,1.65.17,3.85.22,1.9-.02,1.12-.07,1.48-.13,1.05.05,3.07.08,2.81.19,1.48-.13,2.37.08,4.15.04,1.57-.06-.11-.05,1.01-.12,1.57.01,3.57.02,5.03.03.04,0,.08,0,.09,0,.04,0,.08,0,.09,0,.96.06,1.66-.11,2.19-.26.71-.02,2.68-1.11,1.37-.12-.81.42-1.19.48-1.28.49-.1,0,.05-.07.19-.15.14-.08.28-.16.16-.14-.12.02-.47.19-1.38.35.84-.06-.07.25-1.29.2h-.08s-.05,0-.08,0c-1.03,0-2.19.02-2.49.09.59.05,1.5.08,2.49.09.02,0,.05,0,.07,0h.07c1.01.09,2.07-.13,2.98-.52l-.4.12c.43-.16.95-.4,1.47-.74.52-.36,1.04-.8,1.5-1.31.45-.53.84-1.08,1.22-1.58.38-.5.74-.95,1.03-1.34-.19.42.34-.23-.4.85.48-.66.95-1.34,1.38-2.05.14-.28.28-.57-.1.03.55-1.04,1.09-2.05,1.51-2.85.06-.04.35-.87.84-1.92.26-.52.63-1.08,1.1-1.64.25-.28.47-.58.74-.77.28-.2.62-.3.98-.35,1.49-.18,2.9.7,3.69,1.45.8.78,1.2,1.39,1.14,1.31,1.03,1.42,1.18,1.82,2.13,3.23.02.02-.1-.2-.33-.57-.23-.37-.59-.9-1.03-1.51-.45-.6-.97-1.35-1.58-2.03-.62-.67-1.41-1.28-2.28-1.6-.86-.33-1.84-.35-2.51-.02-.35.16-.56.47-.82.75-.25.28-.46.55-.63.8-.68.99-.84,1.58-.62,1.07.09-.15.29-.53.65-1.03.18-.25.4-.53.67-.83.29-.31.51-.6.91-.76.75-.32,1.87-.21,2.84.3.99.5,1.83,1.36,2.56,2.35.75.97,1.47,1.95,2.07,2.93.57.99,1.17,1.94,1.78,2.66,1.14,1.51,1.85,2.66,1.91,2.92.28.62.84,1.15,1.29,1.41.45.27.76.36.64.26,2.03.88-.7-.08.76.58.04,0-.11-.08.37.08.48.18.97.33,1.45.47.84.16,1.82.27,2.74.49.9.2,1.48,1.11,2.12,1.94.34.46.69.92,1.03,1.37.37.45.74.87,1.15,1.22.42.31.87.62,1.39.55.54-.07.81-.6.96-1.01-.09.26-.21.54-.41.78-.2.25-.57.39-.93.33-.73-.11-1.44-.65-2.34-1.68l-.27-.43c-.12-.14-.5-.61-.85-1.05-.32-.39-.62-.71-.64-.67.33.45.64.88.96,1.3.35.46.76,1.06,1.19,1.48l.32.34.34.28c.22.21.47.34.72.48.26.12.54.21.84.22.31,0,.62-.16.85-.38.35-.3.58-.77.71-1.11-.01,0-.03.03-.04,0,.16-.39.15-.53.17-.56.01-.03.01.07.01.22,0,.04,0,.09-.02.19.37-1.19.69-8.71,1.19-12.59.08-1.2-.02-.14.07-1.64.46-4.02.77-6.79,1.25-10.98.04-1.43,0-1.56-.24,0l.33-3.19c-.03,3.11.81-5.85.75-2.45.15-.91.34-2.83.47-4.67-.05-.22-.12-.57.1-2.84.39-3.11.29-2.37.61-4.95.14-.57.08.41.16.33.28-4.11.52-3.44.87-7.28.2-2.41.65-7.15.51-7.33.31-3.22.43-3.18.52-2.81Z"/></svg>