<?xml version="1.0" encoding="UTF-8" standalone="no"?>
<svg
   xmlns:dc="http://purl.org/dc/elements/1.1/"
   xmlns:cc="http://creativecommons.org/ns#"
   xmlns:rdf="http://www.w3.org/1999/02/22-rdf-syntax-ns#"
   xmlns:svg="http://www.w3.org/2000/svg"
   xmlns="http://www.w3.org/2000/svg"
   xmlns:sodipodi="http://sodipodi.sourceforge.net/DTD/sodipodi-0.dtd"
   xmlns:inkscape="http://www.inkscape.org/namespaces/inkscape"
   id="Ebene_1"
   viewBox="70.82 35.27 358.18 141.51"
   version="1.1"
   sodipodi:docname="logo-stroke-thickness-5.svg"
   width="358.17999"
   height="141.50999"
   inkscape:version="1.0.2-2 (e86c870879, 2021-01-15)">
  <metadata
     id="metadata43">
    <rdf:RDF>
      <cc:Work
         rdf:about="">
        <dc:format>image/svg+xml</dc:format>
        <dc:type
           rdf:resource="http://purl.org/dc/dcmitype/StillImage" />
        <dc:title></dc:title>
      </cc:Work>
    </rdf:RDF>
  </metadata>
  <sodipodi:namedview
     pagecolor="#ffffff"
     bordercolor="#666666"
     borderopacity="1"
     objecttolerance="10"
     gridtolerance="10"
     guidetolerance="10"
     inkscape:pageopacity="0"
     inkscape:pageshadow="2"
     inkscape:window-width="1795"
     inkscape:window-height="961"
     id="namedview41"
     showgrid="false"
     inkscape:zoom="2.9091519"
     inkscape:cx="179.88609"
     inkscape:cy="66.754997"
     inkscape:window-x="1727"
     inkscape:window-y="90"
     inkscape:window-maximized="0"
     inkscape:current-layer="Ebene_1" />
  <defs
     id="defs4">
    <style
       id="style2">.cls-1{fill:#132d44;}</style>
  </defs>
  <path
     d="m 261.2,69.39 v 50.94 h -3.71 V 95.92 h -31.9 v 24.41 h -3.71 V 69.39 h 3.71 v 23.76 h 31.9 V 69.39 Z"
     id="path6" />
  <path
     d="m 303.61,84.51 v 35.82 h -1.91 c -0.6,0 -0.95,-0.31 -1.04,-0.94 l -0.32,-5.33 c -1.66,2.06 -3.57,3.72 -5.74,4.97 -2.17,1.25 -4.59,1.87 -7.25,1.87 -1.99,0 -3.73,-0.31 -5.22,-0.94 -1.49,-0.62 -2.72,-1.52 -3.71,-2.7 -0.98,-1.18 -1.73,-2.59 -2.23,-4.25 -0.5,-1.66 -0.76,-3.53 -0.76,-5.62 v -22.9 h 3.46 v 22.9 c 0,3.36 0.77,5.99 2.3,7.9 1.54,1.91 3.88,2.86 7.02,2.86 2.33,0 4.51,-0.59 6.53,-1.78 2.03,-1.19 3.83,-2.84 5.42,-4.95 V 84.49 h 3.46 z"
     id="path8" />
  <path
     d="m 320.64,90.74 c 1.56,-2.11 3.38,-3.77 5.47,-4.99 2.09,-1.21 4.51,-1.82 7.27,-1.82 2.16,0 4.09,0.4 5.8,1.19 1.71,0.79 3.15,1.93 4.34,3.42 1.19,1.49 2.09,3.32 2.72,5.49 0.62,2.17 0.94,4.64 0.94,7.4 0,2.9 -0.35,5.55 -1.04,7.94 -0.7,2.39 -1.71,4.43 -3.04,6.12 -1.33,1.69 -2.96,3 -4.88,3.92 -1.92,0.92 -4.12,1.39 -6.59,1.39 -2.47,0 -4.71,-0.49 -6.5,-1.46 -1.79,-0.97 -3.33,-2.42 -4.63,-4.34 l -0.25,4.43 c -0.07,0.6 -0.4,0.9 -0.97,0.9 h -2.09 V 67.95 h 3.46 v 22.79 z m 0,21.78 c 1.39,2.06 2.92,3.51 4.59,4.34 1.67,0.83 3.55,1.24 5.63,1.24 2.08,0 4,-0.38 5.6,-1.15 1.6,-0.77 2.93,-1.87 4,-3.29 1.07,-1.43 1.87,-3.16 2.39,-5.2 0.53,-2.04 0.79,-4.33 0.79,-6.88 0,-4.94 -0.98,-8.66 -2.95,-11.16 -1.97,-2.5 -4.73,-3.74 -8.28,-3.74 -2.54,0 -4.76,0.61 -6.66,1.84 -1.9,1.22 -3.6,2.93 -5.11,5.11 v 18.9 z"
     id="path10" />
  <path
     d="m 359.88,101 v 0.68 c 0,2.69 0.31,5.05 0.94,7.09 0.62,2.04 1.51,3.75 2.66,5.13 1.15,1.38 2.54,2.42 4.18,3.11 1.63,0.7 3.46,1.04 5.47,1.04 1.8,0 3.36,-0.2 4.68,-0.59 1.32,-0.4 2.43,-0.84 3.33,-1.33 0.9,-0.49 1.61,-0.94 2.14,-1.33 0.53,-0.39 0.91,-0.59 1.15,-0.59 0.31,0 0.55,0.12 0.72,0.36 l 0.94,1.15 c -0.58,0.72 -1.34,1.39 -2.29,2.02 -0.95,0.63 -2,1.16 -3.17,1.6 -1.16,0.44 -2.41,0.8 -3.74,1.06 -1.33,0.26 -2.67,0.4 -4.01,0.4 -2.45,0 -4.68,-0.43 -6.7,-1.28 -2.02,-0.85 -3.74,-2.09 -5.18,-3.73 -1.44,-1.63 -2.55,-3.63 -3.33,-5.99 -0.78,-2.36 -1.17,-5.07 -1.17,-8.12 0,-2.57 0.37,-4.94 1.1,-7.11 0.73,-2.17 1.79,-4.04 3.17,-5.62 1.38,-1.57 3.07,-2.8 5.08,-3.69 2,-0.89 4.28,-1.33 6.82,-1.33 2.02,0 3.89,0.35 5.62,1.04 1.73,0.7 3.23,1.71 4.5,3.04 1.27,1.33 2.27,2.97 3.01,4.91 0.74,1.94 1.1,4.18 1.1,6.7 0,0.53 -0.07,0.89 -0.22,1.08 -0.14,0.19 -0.38,0.29 -0.72,0.29 H 359.9 Z m 23.9,-2.2 c 0,-1.92 -0.27,-3.64 -0.81,-5.17 -0.54,-1.52 -1.3,-2.81 -2.29,-3.87 -0.98,-1.06 -2.15,-1.87 -3.51,-2.43 -1.36,-0.56 -2.85,-0.85 -4.48,-0.85 -1.85,0 -3.5,0.29 -4.97,0.86 -1.46,0.58 -2.73,1.4 -3.8,2.48 -1.07,1.08 -1.93,2.38 -2.57,3.89 -0.64,1.51 -1.08,3.2 -1.3,5.08 h 23.72 z"
     id="path12" />
  <path
     d="m 401.28,93.15 c 0.55,-1.46 1.18,-2.77 1.89,-3.91 0.71,-1.14 1.52,-2.11 2.45,-2.9 0.92,-0.79 1.96,-1.4 3.1,-1.82 1.14,-0.42 2.41,-0.63 3.8,-0.63 0.74,0 1.48,0.07 2.2,0.2 0.72,0.13 1.36,0.37 1.91,0.7 l -0.29,2.38 c -0.12,0.38 -0.35,0.58 -0.68,0.58 -0.29,0 -0.73,-0.08 -1.31,-0.25 -0.59,-0.17 -1.36,-0.25 -2.32,-0.25 -1.39,0 -2.62,0.21 -3.69,0.63 -1.07,0.42 -2.03,1.05 -2.88,1.89 -0.85,0.84 -1.6,1.88 -2.23,3.11 -0.64,1.24 -1.22,2.66 -1.75,4.27 v 23.18 h -3.46 V 84.51 h 1.84 c 0.41,0 0.7,0.08 0.86,0.25 0.17,0.17 0.28,0.46 0.32,0.86 l 0.25,7.52 z"
     id="path14" />
  <path
     d="m 222.39,148.81 h 1.08 c 0.15,0 0.28,0 0.39,-0.01 0.11,-0.01 0.21,-0.03 0.3,-0.06 0.09,-0.03 0.18,-0.08 0.25,-0.13 0.08,-0.06 0.16,-0.13 0.25,-0.22 l 7.44,-7.33 c 0.1,-0.1 0.19,-0.16 0.27,-0.2 0.08,-0.04 0.18,-0.05 0.29,-0.05 h 0.48 l -7.86,7.74 c -0.14,0.14 -0.27,0.24 -0.37,0.31 -0.1,0.07 -0.22,0.13 -0.37,0.17 0.15,0.04 0.28,0.1 0.4,0.17 0.11,0.07 0.23,0.18 0.35,0.31 l 8.33,8.17 h -0.48 c -0.15,0 -0.26,-0.02 -0.34,-0.05 -0.07,-0.04 -0.14,-0.09 -0.2,-0.17 l -7.82,-7.62 c -0.09,-0.09 -0.17,-0.16 -0.24,-0.22 -0.07,-0.06 -0.15,-0.11 -0.24,-0.15 -0.09,-0.04 -0.19,-0.07 -0.32,-0.09 -0.13,-0.02 -0.28,-0.03 -0.47,-0.03 h -1.12 v 8.34 h -0.66 v -16.87 h 0.66 v 8 z"
     id="path16" />
  <path
     d="m 253.31,157.67 h -0.52 c -0.12,0 -0.21,-0.07 -0.26,-0.2 l -2.2,-5.34 h -8.66 l -2.2,5.34 c -0.04,0.14 -0.13,0.2 -0.28,0.2 h -0.49 l 6.98,-16.87 h 0.64 l 6.98,16.87 z m -3.2,-6.04 -3.86,-9.4 c -0.09,-0.22 -0.17,-0.46 -0.25,-0.72 -0.07,0.26 -0.16,0.5 -0.25,0.72 l -3.86,9.4 h 8.23 z"
     id="path18" />
  <path
     d="m 271.93,157.67 h -0.54 c -0.09,0 -0.17,-0.01 -0.23,-0.04 -0.07,-0.02 -0.13,-0.08 -0.2,-0.17 l -5.95,-7.28 c -0.06,-0.09 -0.13,-0.16 -0.2,-0.22 -0.07,-0.06 -0.14,-0.1 -0.23,-0.14 -0.08,-0.04 -0.18,-0.06 -0.3,-0.08 -0.12,-0.02 -0.26,-0.02 -0.43,-0.02 h -2.46 v 7.94 h -0.66 v -16.87 h 4.07 c 1.83,0 3.22,0.36 4.18,1.07 0.95,0.71 1.43,1.79 1.43,3.24 0,0.66 -0.12,1.27 -0.37,1.81 -0.25,0.54 -0.6,1.01 -1.04,1.4 -0.45,0.4 -0.99,0.71 -1.63,0.95 -0.64,0.24 -1.35,0.38 -2.12,0.43 0.14,0.08 0.28,0.2 0.42,0.36 l 6.28,7.62 z m -10.54,-8.44 h 3.22 c 0.79,0 1.51,-0.09 2.14,-0.28 0.64,-0.19 1.18,-0.46 1.62,-0.82 0.44,-0.36 0.78,-0.79 1.02,-1.29 0.24,-0.5 0.35,-1.07 0.35,-1.7 0,-1.3 -0.42,-2.26 -1.27,-2.88 -0.85,-0.62 -2.07,-0.92 -3.67,-0.92 h -3.41 v 7.9 z"
     id="path20" />
  <path
     d="m 293.36,149.24 c 0,1.32 -0.19,2.5 -0.58,3.55 -0.38,1.04 -0.92,1.93 -1.62,2.65 -0.7,0.72 -1.53,1.28 -2.5,1.66 -0.97,0.38 -2.04,0.58 -3.2,0.58 h -6.08 v -16.87 h 6.08 c 1.17,0 2.24,0.19 3.2,0.58 0.97,0.38 1.8,0.94 2.5,1.66 0.7,0.72 1.24,1.61 1.62,2.65 0.38,1.04 0.58,2.23 0.58,3.55 z m -0.7,0 c 0,-1.26 -0.17,-2.37 -0.52,-3.35 -0.35,-0.98 -0.84,-1.81 -1.48,-2.48 -0.64,-0.67 -1.4,-1.18 -2.28,-1.54 -0.88,-0.35 -1.86,-0.53 -2.92,-0.53 h -5.42 v 15.79 h 5.42 c 1.06,0 2.04,-0.18 2.92,-0.53 0.88,-0.35 1.64,-0.86 2.28,-1.54 0.64,-0.67 1.13,-1.5 1.48,-2.48 0.35,-0.98 0.52,-2.1 0.52,-3.35 z"
     id="path22" />
  <path
     d="m 302.59,157.67 h -0.66 V 140.8 h 0.66 z"
     id="path24" />
  <path
     d="m 326.92,149.24 c 0,1.32 -0.19,2.51 -0.58,3.57 -0.38,1.06 -0.92,1.96 -1.62,2.71 -0.7,0.75 -1.53,1.32 -2.5,1.72 -0.97,0.4 -2.04,0.6 -3.22,0.6 -1.18,0 -2.22,-0.2 -3.19,-0.6 -0.97,-0.4 -1.8,-0.97 -2.5,-1.72 -0.7,-0.75 -1.24,-1.65 -1.62,-2.71 -0.38,-1.06 -0.58,-2.25 -0.58,-3.57 0,-1.32 0.19,-2.5 0.58,-3.56 0.39,-1.06 0.92,-1.97 1.62,-2.72 0.7,-0.75 1.53,-1.33 2.5,-1.73 0.97,-0.41 2.03,-0.61 3.19,-0.61 1.16,0 2.25,0.2 3.22,0.61 0.97,0.4 1.8,0.98 2.5,1.73 0.7,0.75 1.24,1.65 1.62,2.72 0.38,1.06 0.58,2.26 0.58,3.58 z m -0.69,0 c 0,-1.26 -0.17,-2.38 -0.52,-3.38 -0.35,-1 -0.84,-1.84 -1.48,-2.54 -0.64,-0.7 -1.4,-1.23 -2.28,-1.6 -0.88,-0.37 -1.86,-0.55 -2.93,-0.55 -1.07,0 -2.03,0.18 -2.91,0.55 -0.88,0.37 -1.64,0.9 -2.28,1.6 -0.64,0.7 -1.13,1.54 -1.49,2.54 -0.36,1 -0.53,2.12 -0.53,3.38 0,1.26 0.18,2.38 0.53,3.38 0.35,1 0.85,1.84 1.49,2.53 0.64,0.69 1.4,1.22 2.28,1.58 0.88,0.37 1.85,0.55 2.91,0.55 1.06,0 2.05,-0.18 2.93,-0.55 0.88,-0.37 1.64,-0.9 2.28,-1.58 0.64,-0.69 1.13,-1.53 1.48,-2.53 0.35,-1 0.52,-2.12 0.52,-3.38 z"
     id="path26" />
  <path
     d="m 344.49,157.1 v 0.58 h -9.02 v -16.87 h 0.66 v 16.3 h 8.36 z"
     id="path28" />
  <path
     d="m 365.36,149.24 c 0,1.32 -0.19,2.51 -0.58,3.57 -0.38,1.06 -0.92,1.96 -1.62,2.71 -0.7,0.75 -1.53,1.32 -2.5,1.72 -0.97,0.4 -2.04,0.6 -3.22,0.6 -1.18,0 -2.22,-0.2 -3.19,-0.6 -0.97,-0.4 -1.8,-0.97 -2.5,-1.72 -0.7,-0.75 -1.24,-1.65 -1.62,-2.71 -0.38,-1.06 -0.58,-2.25 -0.58,-3.57 0,-1.32 0.19,-2.5 0.58,-3.56 0.39,-1.06 0.92,-1.97 1.62,-2.72 0.7,-0.75 1.53,-1.33 2.5,-1.73 0.97,-0.41 2.03,-0.61 3.19,-0.61 1.16,0 2.25,0.2 3.22,0.61 0.97,0.4 1.8,0.98 2.5,1.73 0.7,0.75 1.24,1.65 1.62,2.72 0.38,1.06 0.58,2.26 0.58,3.58 z m -0.7,0 c 0,-1.26 -0.17,-2.38 -0.52,-3.38 -0.35,-1 -0.84,-1.84 -1.48,-2.54 -0.64,-0.7 -1.4,-1.23 -2.28,-1.6 -0.88,-0.37 -1.86,-0.55 -2.93,-0.55 -1.07,0 -2.03,0.18 -2.91,0.55 -0.88,0.37 -1.64,0.9 -2.28,1.6 -0.64,0.7 -1.13,1.54 -1.49,2.54 -0.36,1 -0.53,2.12 -0.53,3.38 0,1.26 0.18,2.38 0.53,3.38 0.35,1 0.85,1.84 1.49,2.53 0.64,0.69 1.4,1.22 2.28,1.58 0.88,0.37 1.85,0.55 2.91,0.55 1.06,0 2.05,-0.18 2.93,-0.55 0.88,-0.37 1.64,-0.9 2.28,-1.58 0.64,-0.69 1.13,-1.53 1.48,-2.53 0.35,-1 0.52,-2.12 0.52,-3.38 z"
     id="path30" />
  <path
     d="m 387.26,150.26 v 5.76 c -0.83,0.57 -1.73,1.02 -2.69,1.35 -0.96,0.33 -2.04,0.5 -3.25,0.5 -1.32,0 -2.51,-0.2 -3.56,-0.61 -1.06,-0.4 -1.95,-0.98 -2.69,-1.73 -0.74,-0.75 -1.31,-1.65 -1.7,-2.72 -0.39,-1.06 -0.59,-2.26 -0.59,-3.58 0,-1.32 0.19,-2.51 0.58,-3.57 0.39,-1.06 0.95,-1.97 1.67,-2.72 0.73,-0.75 1.61,-1.33 2.64,-1.73 1.03,-0.4 2.19,-0.61 3.48,-0.61 0.63,0 1.21,0.04 1.75,0.12 0.54,0.08 1.03,0.2 1.48,0.37 0.46,0.16 0.89,0.37 1.29,0.62 0.4,0.25 0.79,0.54 1.17,0.86 l -0.17,0.25 c -0.06,0.1 -0.16,0.13 -0.28,0.1 -0.08,-0.02 -0.23,-0.13 -0.44,-0.31 -0.21,-0.18 -0.52,-0.38 -0.93,-0.59 -0.41,-0.21 -0.93,-0.41 -1.57,-0.58 -0.64,-0.18 -1.41,-0.26 -2.32,-0.26 -1.18,0 -2.24,0.18 -3.19,0.55 -0.95,0.37 -1.76,0.9 -2.42,1.6 -0.67,0.7 -1.18,1.54 -1.54,2.54 -0.36,1 -0.54,2.12 -0.54,3.38 0,1.26 0.18,2.37 0.54,3.37 0.36,1 0.88,1.85 1.55,2.55 0.68,0.7 1.5,1.24 2.47,1.61 0.97,0.37 2.07,0.56 3.29,0.56 0.55,0 1.07,-0.04 1.54,-0.11 0.48,-0.07 0.93,-0.18 1.35,-0.31 0.42,-0.14 0.84,-0.3 1.24,-0.5 0.4,-0.2 0.8,-0.42 1.21,-0.67 v -4.96 h -3.56 c -0.06,0 -0.1,-0.02 -0.14,-0.06 -0.04,-0.04 -0.06,-0.08 -0.06,-0.13 v -0.34 h 4.38 z"
     id="path32" />
  <path
     d="m 396.6,157.67 h -0.66 V 140.8 h 0.66 z"
     id="path34" />
  <path
     d="m 416.25,157.11 -0.02,0.56 h -9.96 V 140.8 h 9.96 v 0.56 h -9.3 v 7.48 h 7.84 v 0.55 h -7.84 v 7.72 z"
     id="path36" />
  <path
     class="cls-1"
     d="m 144.29994,77.443685 0.27,-2.62 c -0.8,8.51 -1.71,17.42 -2.61,26.180005 1.16,-9.410005 2.41,-19.790005 3.42,-29.720005 0.5,-4.96 0.94,-9.81 1.26,-14.35 0.16,-2.27 0.3,-4.46 0.4,-6.55 0.04,-1.04 0.08,-2.06 0.13,-3.05 0.01,-0.49 0.03,-0.98 0.04,-1.46 v -0.36 c 0,0 0.01,-0.18 0.01,-0.18 v -0.08 c 0,0 0.05,-0.66 0.05,-0.66 0.11,-0.17 0.27,-0.6 0.47,-1.19 0.2,-0.57 0.46,-1.39 0.78,-2.02 0.04,-0.08 0.08,-0.13 0.11,-0.18 0.01,-0.01 0.02,-0.02 0.03,-0.04 v 0 c 0,0 -0.1,-0.06 -0.14,-0.09 -0.11,-0.07 -0.22,-0.15 -0.32,-0.23 -0.22,-0.21 -0.35,-0.29 -0.46,-0.44 -0.12,-0.2 -0.15,-0.18 -0.17,-0.31 0,-0.03 0.02,0.1 -0.34,0.45 -0.18,0.19 -0.31,0.21 -0.62,0.45 l -0.23,0.15 v 0 c 0,0 0.06,0.19 0.06,0.19 0.05,0.19 0.11,0.4 0.16,0.64 0.21,0.97 0.35,2.16 0.47,3.31 0.26,2.46 0.54,4.9 0.76,6.73 0.23,1.84 0.4,3.07 0.45,3.16 0.6,3.86 1.21,7.75 1.83,11.69 -0.41,-2.71 -0.82,-5.41 -1.22,-8.09 0.41,2.68 0.81,5.38 1.22,8.09 3.76,24.85 7.1,51.910005 10.61,80.410005 0.5,3.94 1.2,9.56 2.02,16.04 0.1,0.81 0.21,1.63 0.31,2.47 l 0.08,0.63 0.04,0.32 c 0.01,0.1 0.02,0.2 0.06,0.39 0.14,0.65 0.29,1.27 0.47,1.79 0.35,1.07 0.78,1.72 1.22,2.16 0.22,0.22 0.44,0.41 0.71,0.55 0.13,0.07 0.28,0.14 0.47,0.2 0.18,0.06 0.51,0.06 0.71,0.02 0.39,-0.09 0.63,-0.22 0.87,-0.39 0.24,-0.17 0.47,-0.37 0.7,-0.65 0.46,-0.56 0.94,-1.4 1.31,-2.8 l 0.28,-1.01 0.23,-1.19 0.45,-2.39 c 0.18,-0.9 0.24,-1.34 0.34,-1.92 l 0.27,-1.69 c 1.14,-7.27 1.98,-14.39 2.58,-20.83 l 0.05,-0.55 0.05,-0.18 c 0.08,-0.25 0.18,-0.51 0.3,-0.74 0.24,-0.48 0.54,-0.88 0.88,-1.19 0.66,-0.64 1.51,-0.9 2.47,-0.97 0.83,-0.04 2.36,0.14 3.52,0.19 1.22,0.07 2.35,0.1 3.42,0.09 0.4,0 0.81,-0.02 1.23,-0.05 l 0.66,-0.06 0.37,-0.05 0.23,-0.04 v 0 c 0.92,-0.05 1.89,-0.22 2.85,-0.57 0.95,-0.35 1.97,-0.9 2.8,-1.81 -0.83,0.9 -1.84,1.44 -2.79,1.79 -0.96,0.35 -1.93,0.52 -2.85,0.56 v 0 c 0,0 -0.36,0.06 -0.36,0.06 l -0.47,0.05 c -0.3,0.03 -0.59,0.04 -0.86,0.06 -0.55,0.02 -1.1,0.03 -1.62,0.02 0.55,0 1.11,-0.03 1.67,-0.07 0.28,-0.02 0.56,-0.05 0.86,-0.08 0.15,-0.02 0.3,-0.04 0.45,-0.07 l 0.25,-0.05 c 0.06,-0.01 0.08,-0.02 0.08,-0.02 h 0.01 c 1.25,-0.1 2.51,-0.41 3.74,-1.06 0.61,-0.33 1.21,-0.79 1.72,-1.35 0.51,-0.57 0.91,-1.25 1.16,-1.96 0.59,-1.7 1.36,-3.43 2.11,-5.13 1.52,-3.39 3.06,-6.68 4.6,-9.88 l 0.05,-0.1 v -0.03 c 0.05,-0.11 0.25,-0.49 0.28,-0.53 -0.08,0.06 -0.3,0.42 -0.36,0.5 l -0.06,0.13 c -0.43,0.71 -0.87,1.43 -2.07,3.68 l 1.92,-3.76 0.05,-0.12 v -0.03 c 0.06,-0.15 0.16,-0.37 0.23,-0.51 0.07,-0.13 0.11,-0.22 0.19,-0.32 0.14,-0.2 0.4,-0.38 0.7,-0.32 0.3,0.07 0.5,0.25 0.85,0.7 0.38,0.5 0.8,1.27 1.21,1.97 1.65,2.84 3.32,5.71 4.39,7.55 -0.57,-0.73 1.05,2.21 2.48,4.79 l -0.49,-1.06 c 0.34,0.61 0.69,1.23 1.03,1.86 l 0.52,0.94 0.17,0.31 0.22,0.37 c 0.19,0.2 0.41,0.39 0.62,0.56 1.34,1.04 2.96,1.75 4.74,1.91 l 0.66,0.03 h 0.56 c 0,0 1.12,0 1.12,0 h 2.24 c 1.49,0 2.98,-0.01 4.47,-0.02 5.93,-0.01 11.71,-0.02 16.74,-0.03 1.4,0 2.45,0.05 3.09,0.1 l 9.64,-0.11 c -0.74,0.19 8,0.16 3.4,0.28 7.22,-0.22 14.54,-0.08 21.42,-0.31 24.6,-0.03 50.76,-0.17 76.19,-0.48 l -0.62,-0.07 c 8.9,-0.12 16.75,-0.49 27.57,-0.37 7.73,-0.25 18.72,-0.38 21.79,-0.76 8.92,-0.05 12.47,-0.25 21.22,-0.35 -2.25,-0.19 8.49,-0.23 4.19,-0.38 -5.8,-0.27 -6.12,-0.04 -11.04,-0.26 l 0.15,0.06 c -22.97,-0.29 -45.98,-0.45 -69.26,-0.54 -15.54,0.16 -32.39,0.03 -48.55,0.08 -17.39,0.07 -36.21,0.19 -51.13,0.35 -3.56,0.05 -6.13,-0.11 -9.16,-0.19 -6.86,0.02 -14.66,0.04 -22.67,0.06 h -1.46 c -0.38,0 -0.76,-0.07 -1.14,-0.16 -0.75,-0.19 -1.5,-0.55 -2.16,-1.02 -0.2,-0.15 -0.22,-0.17 -0.29,-0.23 -0.02,-0.03 -0.04,-0.07 -0.06,-0.09 l -0.16,-0.28 -0.75,-1.32 -1.49,-2.64 c -2,-3.51 -3.98,-7 -5.9,-10.37 0.14,0.26 0.28,0.5 0.37,0.67 -0.2,-0.35 -0.4,-0.7 -0.59,-1.04 -0.2,-0.35 -0.36,-0.67 -0.64,-1.06 l -0.37,-0.56 c -0.17,-0.21 -0.36,-0.43 -0.55,-0.64 -0.17,-0.21 -0.41,-0.4 -0.66,-0.58 -0.24,-0.18 -0.48,-0.38 -0.76,-0.47 -0.27,-0.13 -0.54,-0.24 -0.83,-0.27 -0.28,-0.08 -0.57,-0.07 -0.86,-0.05 -0.57,0.08 -1.12,0.29 -1.58,0.63 -0.47,0.33 -0.87,0.79 -1.21,1.25 -0.35,0.51 -0.48,0.77 -0.71,1.28 l 0.05,-0.12 c -2,3.93 -3.91,7.64 -5.93,12.15 0.06,-0.02 -0.44,1.14 -0.66,1.74 -0.05,0.08 -0.15,0.29 -0.31,0.67 -0.07,0.19 -0.16,0.41 -0.26,0.66 -0.06,0.13 -0.12,0.29 -0.22,0.43 -0.19,0.29 -0.49,0.61 -1.03,0.88 -0.54,0.27 -1.27,0.49 -2.13,0.54 l -0.32,0.05 c -1.45,0.25 -3.3,0.23 -5.28,0.16 -0.5,-0.02 -1,-0.05 -1.51,-0.07 -0.26,-0.02 -0.52,-0.03 -0.78,-0.05 -0.31,0 -0.62,0 -0.93,-0.01 -1.25,0.02 -2.63,0.27 -3.87,0.96 -1.24,0.68 -2.27,1.75 -2.91,2.96 -0.33,0.6 -0.59,1.23 -0.77,1.91 -0.04,0.14 -0.11,0.41 -0.12,0.63 l -0.03,0.47 -0.06,0.84 c -0.17,2.26 -0.36,4.5 -0.57,6.65 -0.42,4.31 -0.88,8.26 -1.29,11.26 -0.1,0.74 -0.2,1.42 -0.28,2.03 -0.08,0.53 -0.15,1 -0.21,1.4 -0.05,0.31 -0.09,0.57 -0.13,0.77 -0.03,0.15 -0.05,0.26 -0.07,0.32 -0.06,0.42 -0.12,0.86 -0.2,1.31 -0.11,0.51 -0.23,1 -0.41,1.46 -0.1,0.21 -0.18,0.5 -0.44,0.55 -0.27,-0.07 -0.33,-0.42 -0.42,-0.66 -0.15,-0.53 -0.24,-1.06 -0.31,-1.57 l -0.28,-2.44 c -0.49,-4.24 -0.97,-8.47 -1.45,-12.62 -0.95,-8.28 -1.87,-16.2 -2.82,-23.24 -0.51,-2.94 -1.05,-6.3 -1.51,-8.77 -0.23,-2.61 -0.48,-2.9 -0.85,-5.95 -0.55,-8.11 -1.32,-12.400005 -0.97,-8.31 -0.89,-6.270005 -1.68,-12.640005 -2.43,-18.240005 -0.38,-2.58 -0.76,-5.15 -1.14,-7.76 -0.33,-2.21 -0.42,-3.5 -0.46,-4.67 -0.82,-5.68 -0.48,-4.05 -1.21,-10.04 -0.02,-1.49 -2.23,-14.89 -2.42,-16.67 l 0.17,1 c -0.11,-0.88 -0.23,-1.75 -0.38,-2.6 -0.16,-0.86 -0.28,-1.65 -0.65,-2.6 -0.1,-0.24 -0.2,-0.5 -0.47,-0.85 -0.08,-0.09 -0.16,-0.19 -0.25,-0.27 -0.11,-0.1 -0.31,-0.24 -0.49,-0.32 -0.14,-0.09 -0.47,-0.16 -0.74,-0.15 -0.3,0 -0.47,0.07 -0.7,0.16 -0.71,0.38 -0.85,0.73 -1.02,0.96 -0.17,0.26 -0.26,0.47 -0.36,0.69 -0.36,0.84 -0.57,1.58 -0.77,2.33 -0.2,0.75 -0.36,1.48 -0.51,2.25 -0.09,0.76 -0.19,1.52 -0.29,2.31 -0.17,1.49 -0.34,3.05 -0.51,4.75 -1.89,18.82 -3.69,39.45 -5.38,56.890005 0.16,0.31 0.32,-3.88 0.57,-3.92 -1.05,10.13 -2.1,20.36 -3.16,30.59 -0.03,0.08 -0.08,0.17 -0.17,0.2 -0.1,0.03 -0.21,-0.05 -0.27,-0.13 -0.13,-0.16 -0.18,-0.3 -0.19,-0.37 -0.01,-0.02 -0.03,-0.05 -0.04,-0.07 -0.07,-0.09 -0.13,-0.18 -0.18,-0.25 -0.16,-0.21 -0.29,-0.38 -0.39,-0.52 -0.25,-0.32 -0.42,-0.51 -0.58,-0.68 -0.17,-0.17 -0.3,-0.32 -0.61,-0.6 -0.15,-0.13 -0.37,-0.33 -0.69,-0.54 -0.31,-0.21 -0.76,-0.42 -1.23,-0.56 l -0.41,-0.28 c -1.08,-0.19 -1.72,-0.28 -2.41,-0.44 -0.7,-0.15 -1.18,-0.3 -1.65,-0.5 -0.45,-0.19 -0.83,-0.42 -1.02,-0.61 -0.1,-0.1 -0.14,-0.15 -0.19,-0.24 -0.08,-0.15 -0.16,-0.31 -0.25,-0.47 -0.14,-0.25 -0.26,-0.44 -0.4,-0.64 -0.18,-0.16 -0.87,-1.21 -1.66,-2.28 -0.01,-0.17 -0.49,-0.74 -0.87,-1.38 -0.38,-0.67 -0.94,-1.59 -0.81,-1.52 l -0.03,-0.03 c -0.42,-0.69 -0.75,-1.14 -1.26,-1.93 -0.11,-0.14 -0.34,-0.43 -0.66,-0.83 -0.29,-0.35 -0.78,-1.01 -1.47,-1.64 -0.69,-0.63 -1.59,-1.3 -2.76,-1.72 -0.58,-0.22 -1.23,-0.35 -1.92,-0.39 -0.35,-0.02 -0.71,0 -1.08,0.05 -0.39,0.06 -0.83,0.18 -1.2,0.34 -0.39,0.16 -0.75,0.39 -1.05,0.68 -0.15,0.11 -0.33,0.32 -0.41,0.4 l -0.25,0.29 c -0.34,0.39 -0.66,0.81 -0.95,1.25 -0.6,0.89 -0.97,1.86 -1.21,2.51 -0.25,0.68 -0.45,1.15 -0.65,1.59 -0.2,0.42 -0.34,0.73 -0.41,0.88 l -0.33,0.52 c -0.91,1.54 -1.33,2.25 -0.67,1.38 -0.42,0.62 -0.9,1.25 -1.38,1.91 l 0.15,-0.23 c -0.52,0.72 -0.85,1.16 -1.31,1.59 -0.27,0.21 -0.6,0.39 -0.27,0 -0.71,0.72 -1.79,1.21 -2.789998,1.25 1.389998,-0.05 2.909998,-0.77 3.979998,-2.18 0.67,-0.87 1.34,-1.69 1.91,-2.49 0.58,-0.8 1.09,-1.63 1.56,-2.46 -0.33,0.72 -0.85,1.66 -1.46,2.56 -0.61,0.89 -1.34,1.82 -1.85,2.55 -0.42,0.49 -1.03,1.15 -1.88,1.59 -0.41,0.23 -0.88,0.42 -1.38,0.52 -0.479998,0.11 -1.069998,0.15 -1.449998,0.11 -0.03,0 -0.1,0 -0.14,-0.01 h -0.14 c -0.93,-0.03 -1.84,-0.06 -2.7,-0.08 -0.74,0.01 -1.24,0.21 -2.92,0.12 -0.82,-0.14 -1.89,0 -3.28,-0.09 1.6,-0.07 3.16,-0.04 4.78,-0.03 -0.28,-0.16 -3.94,-0.11 -5.22,-0.16 -0.6,0.05 -3.72,0 -5.69,0.04 0.86,-0.16 -1.58,-0.1 -2.75,-0.18 -1.32,-0.02 -2.17,0.04 -1.63,0.1 -0.43,0.17 5.27,0.1 3.42,0.28 -0.49,-0.08 -3.08,-0.05 -4.47,-0.05 -0.02,0.09 0.95,0.07 0.05,0.16 -1.55,-0.02 -3.2,0.09 -4.09,0 0.29,-0.03 0.93,0 1.39,0 -2.02,0 10.95,-0.6 8.34,-0.55 0.68,0.08 -11.51,0.55 -10.16,0.55 1.23,0.05 -0.88,0.17 0.39,0.2 l 1.42,-0.11 c 1.74,0.03 2.46,0.2 1.84,0.26 -2.92,-0.01 8.29,-0.63 5.8,-0.54 l 1.01,0.04 c -1.06,0.06 -3.89,0.11 -4.98,0.02 0,0.09 -1.43,0.12 -2.62,0.16 l -0.42,-0.02 c -1.22,0.05 -2.93,0.02 -2.14,0.15 7.17,-0.01 -4.71,0.93 2.23,0.98 -2.91,-0.2 0.98,-0.21 4.03,-0.23 0.3,0.07 1.65,0.17 3.85,0.22 1.9,-0.02 1.12,-0.07 1.48,-0.13 1.05,0.05 3.07,0.08 2.81,0.19 1.48,-0.13 2.37,0.08 4.15,0.04 1.57,-0.06 -0.11,-0.05 1.01,-0.12 1.57,0.01 3.57,0.02 5.03,0.03 0.04,0 0.08,0 0.09,0 0.04,0 0.08,0 0.09,0 0.96,0.06 1.659998,-0.11 2.189998,-0.26 0.71,-0.02 2.68,-1.11 1.37,-0.12 -0.81,0.42 -1.19,0.48 -1.28,0.49 -0.1,0 0.05,-0.07 0.19,-0.15 0.14,-0.08 0.28,-0.16 0.16,-0.14 -0.12,0.02 -0.47,0.19 -1.379998,0.35 0.839998,-0.06 -0.07,0.25 -1.29,0.2 h -0.08 c 0,0 -0.05,0 -0.08,0 -1.03,0 -2.19,0.02 -2.49,0.09 0.59,0.05 1.5,0.08 2.49,0.09 0.02,0 0.05,0 0.07,0 h 0.07 c 1.01,0.09 2.069998,-0.13 2.979998,-0.52 l -0.4,0.12 c 0.43,-0.16 0.95,-0.4 1.47,-0.74 0.52,-0.36 1.04,-0.8 1.5,-1.31 0.45,-0.53 0.84,-1.08 1.22,-1.58 0.38,-0.5 0.74,-0.95 1.03,-1.34 -0.19,0.42 0.34,-0.23 -0.4,0.85 0.48,-0.66 0.95,-1.34 1.38,-2.05 0.14,-0.28 0.28,-0.57 -0.1,0.03 0.55,-1.04 1.09,-2.05 1.51,-2.85 0.06,-0.04 0.35,-0.87 0.84,-1.92 0.26,-0.52 0.63,-1.08 1.1,-1.64 0.25,-0.28 0.47,-0.58 0.74,-0.77 0.28,-0.2 0.62,-0.3 0.98,-0.35 1.49,-0.18 2.9,0.7 3.69,1.45 0.8,0.78 1.2,1.39 1.14,1.31 1.03,1.42 1.18,1.82 2.13,3.23 0.02,0.02 -0.1,-0.2 -0.33,-0.57 -0.23,-0.37 -0.59,-0.9 -1.03,-1.51 -0.45,-0.6 -0.97,-1.35 -1.58,-2.03 -0.62,-0.67 -1.41,-1.28 -2.28,-1.6 -0.86,-0.33 -1.84,-0.35 -2.51,-0.02 -0.35,0.16 -0.56,0.47 -0.82,0.75 -0.25,0.28 -0.46,0.55 -0.63,0.8 -0.68,0.99 -0.84,1.58 -0.62,1.07 0.09,-0.15 0.29,-0.53 0.65,-1.03 0.18,-0.25 0.4,-0.53 0.67,-0.83 0.29,-0.31 0.51,-0.6 0.91,-0.76 0.75,-0.32 1.87,-0.21 2.84,0.3 0.99,0.5 1.83,1.36 2.56,2.35 0.75,0.97 1.47,1.95 2.07,2.93 0.57,0.99 1.17,1.94 1.78,2.66 1.14,1.51 1.85,2.66 1.91,2.92 0.28,0.62 0.84,1.15 1.29,1.41 0.45,0.27 0.76,0.36 0.64,0.26 2.03,0.88 -0.7,-0.08 0.76,0.58 0.04,0 -0.11,-0.08 0.37,0.08 0.48,0.18 0.97,0.33 1.45,0.47 0.84,0.16 1.82,0.27 2.74,0.49 0.9,0.2 1.48,1.11 2.12,1.94 0.34,0.46 0.69,0.92 1.03,1.37 0.37,0.45 0.74,0.87 1.15,1.22 0.42,0.31 0.87,0.62 1.39,0.55 0.54,-0.07 0.81,-0.6 0.96,-1.01 -0.09,0.26 -0.21,0.54 -0.41,0.78 -0.2,0.25 -0.57,0.39 -0.93,0.33 -0.73,-0.11 -1.44,-0.65 -2.34,-1.68 l -0.27,-0.43 c -0.12,-0.14 -0.5,-0.61 -0.85,-1.05 -0.32,-0.39 -0.62,-0.71 -0.64,-0.67 0.33,0.45 0.64,0.88 0.96,1.3 0.35,0.46 0.76,1.06 1.19,1.48 l 0.32,0.34 0.34,0.28 c 0.22,0.21 0.47,0.34 0.72,0.48 0.26,0.12 0.54,0.21 0.84,0.22 0.31,0 0.62,-0.16 0.85,-0.38 0.35,-0.3 0.58,-0.77 0.71,-1.11 -0.01,0 -0.03,0.03 -0.04,0 0.16,-0.39 0.15,-0.53 0.17,-0.56 0.01,-0.03 0.01,0.07 0.01,0.22 0,0.04 0,0.09 -0.02,0.19 0.37,-1.19 0.69,-8.71 1.19,-12.59 0.08,-1.2 -0.02,-0.14 0.07,-1.64 0.46,-4.02 0.77,-6.79 1.25,-10.98 0.04,-1.43 0,-1.56 -0.24,0 l 0.33,-3.19 c -0.03,3.11 0.81,-5.85 0.75,-2.45 0.15,-0.91 0.34,-2.83 0.47,-4.67 -0.05,-0.22 -0.12,-0.57 0.1,-2.840005 0.39,-3.11 0.29,-2.37 0.61,-4.95 0.14,-0.57 0.08,0.41 0.16,0.33 0.28,-4.11 0.52,-3.44 0.87,-7.28 0.2,-2.41 0.65,-7.15 0.51,-7.33 0.31,-3.22 0.43,-3.18 0.52,-2.81 z"
     id="path38"
     style="stroke:#132d44;stroke-width:5;stroke-miterlimit:4;stroke-dasharray:none;stroke-opacity:1" />
</svg>
